<?xml version="1.0" encoding="utf-8"?>
<!-- Generator: Adobe Illustrator 19.2.1, SVG Export Plug-In . SVG Version: 6.00 Build 0)  -->
<svg version="1.1" id="layer" xmlns="http://www.w3.org/2000/svg" xmlns:xlink="http://www.w3.org/1999/xlink" x="0px" y="0px"
	 viewBox="0 0 652 652" style="enable-background:new 0 0 652 652;" xml:space="preserve">
<style type="text/css">
	.st0{fill:#0056B9;}
</style>
<g>
	<path class="st0" d="M287.2,321.9c9,10.5,20.2,30,27,45h26.3c-7.5-17.2-22.5-40.1-30.7-49.1c7.5-7.5,21.7-25.9,30-40.9h-26.3
		c-9,15.8-21,30.8-26.2,36v-36h-22.5v90h22.5V321.9"/>
	<path class="st0" d="M80.2,276.9c-3.9,11.8-9.8,24.2-16.5,35.8c-6.7-11.6-12.6-24-16.5-35.8H21.7c6.8,18.8,20.3,41.3,30.8,54v36
		h22.5v-36c10.5-12.8,24-35.3,30.8-54H80.2"/>
	<path class="st0" d="M126.7,276.9c-11.3,22.5-24.7,60.8-31.5,90h24c1-4.7,2.2-9.7,3.6-15h31.8c1.4,5.3,2.6,10.3,3.6,15h24
		c-6.7-29.3-20.2-67.5-31.5-90H126.7 M127.7,333.9c3.3-11.6,7.1-23.5,11-34.3c3.9,10.8,7.6,22.7,11,34.3H127.7z"/>
	<path class="st0" d="M236.9,318.9c-10.5-4.5-15.7-6.8-21-9c-5.2-2.3-7.5-3.8-7.5-7.5c0-4.5,1.5-6.3,5.3-6.7c6.7-0.8,21,0,34.5,3
		l0-19.9c-9-1.9-21-2.6-30-2.6c-4.5,0-10.5,0.4-15,1.1c-12,1.9-18,9.4-18,24.4c0,10.5,3.8,18.8,14.2,23.3c9,3.9,15.8,6.8,21,9
		c5.3,2.2,7.5,3.7,7.5,7.5c0,4.5-1.5,6.3-5.3,6.8c-6,0.7-20.9,0-34.5-3V365c9,1.9,21,2.6,30,2.6c4.5,0,10.5-0.4,15-1.1
		c12-1.9,18-9,18-24.4C251.2,330.2,247.4,323.4,236.9,318.9"/>
	<path class="st0" d="M365.9,276.9c-11.3,22.5-24.8,60.8-31.5,90h24c1-4.7,2.3-9.7,3.6-15h31.8c1.4,5.3,2.6,10.3,3.6,15h24
		c-6.7-29.3-20.2-67.5-31.5-90H365.9 M366.9,333.9c3.3-11.6,7.1-23.5,11-34.3c3.9,10.8,7.6,22.7,11,34.3H366.9z"/>
	<path class="st0" d="M516.7,276.9c-3.4,18.6-8.4,40.9-13.6,60.9c-5.4-20.2-10.7-42.8-14.2-60.9h-21.8c-3.4,18.1-8.8,40.7-14.2,60.9
		c-5.2-20-10.2-42.4-13.6-60.9h-24c6,27,17.3,66,25.5,90h24.8c3.8-13.4,8.2-31.3,12.4-49.3c4.1,18,8.6,35.9,12.4,49.3h24.8
		c8.2-24,19.5-63,25.5-90H516.7"/>
	<path class="st0" d="M597.7,366.9h24c-6.7-29.3-20.2-67.5-31.5-90h-24c-11.3,22.5-24.8,60.8-31.5,90h24c1-4.7,2.3-9.7,3.6-15H594
		C595.4,357.2,596.6,362.2,597.7,366.9 M567.2,333.9c3.3-11.6,7.1-23.5,11-34.3c3.8,10.8,7.6,22.7,11,34.3H567.2z"/>
</g>
</svg>
